<svg xmlns="http://www.w3.org/2000/svg" width="96.944" height="110.245" viewBox="0 0 96.944 110.245">
  <g id="Group_432" data-name="Group 432" transform="translate(-0.038 -0.779)">
    <path id="Path_40" data-name="Path 40" d="M84.947,22.244a1.065,1.065,0,0,0-.963-.894c-.4-.033-8.874-.661-8.874-.661s-5.885-5.842-6.531-6.489a2.678,2.678,0,0,0-2.4-.305c-.072.021-1.286.4-3.293,1.017C60.921,9.254,57.452,4.055,51.348,4.055c-.168,0-.342.007-.515.017A7.417,7.417,0,0,0,45.09.779c-14.218,0-21.011,17.774-23.141,26.806C16.424,29.3,12.5,30.514,12,30.672c-3.084.967-3.181,1.065-3.586,3.97-.3,2.2-8.374,64.6-8.374,64.6l62.875,11.781,34.068-7.37S85.022,22.8,84.947,22.244ZM59.412,15.985l-5.32,1.647c0-.375,0-.744,0-1.147a26.1,26.1,0,0,0-1.271-8.59C55.97,8.289,58.064,11.867,59.412,15.985ZM48.923,8.591a26.374,26.374,0,0,1,1.443,9.578c0,.217,0,.416,0,.616l-10.988,3.4c2.116-8.165,6.082-12.109,9.549-13.6Zm-4.224-4a3.211,3.211,0,0,1,1.824.616c-4.557,2.144-9.441,7.545-11.5,18.329l-8.685,2.69C28.75,18,34.486,4.593,44.7,4.593Z" transform="translate(0 0)" fill="#95bf46"/>
    <path id="Path_41" data-name="Path 41" d="M186.792,42.61c-.4-.033-8.874-.661-8.874-.661s-5.885-5.842-6.531-6.489a1.613,1.613,0,0,0-.909-.417l-4.754,97.241,34.065-7.369s-11.96-80.856-12.035-81.41a1.065,1.065,0,0,0-.963-.894" transform="translate(-102.808 -21.26)" fill="#5e8e3e"/>
    <path id="Path_42" data-name="Path 42" d="M75.661,101.893l-4.2,12.5a19.324,19.324,0,0,0-8.192-1.964c-6.614,0-6.947,4.151-6.947,5.2,0,5.707,14.877,7.894,14.877,21.261,0,10.517-6.671,17.289-15.665,17.289-10.793,0-16.313-6.717-16.313-6.717l2.89-9.548s5.674,4.871,10.461,4.871a4.22,4.22,0,0,0,4.4-4.263c0-7.444-12.2-7.777-12.2-20.009,0-10.3,7.39-20.259,22.306-20.259,5.748,0,8.587,1.646,8.587,1.646" transform="translate(-24.313 -61.72)" fill="#fff"/>
  </g>
</svg>
